<svg width="36" height="36" viewBox="0 0 36 36" fill="none" xmlns="http://www.w3.org/2000/svg">
<path d="M18 0C8.05957 0 0 8.05959 0 18C0 27.9403 8.05957 36 18 36C27.9404 36 35.9998 27.9402 35.9998 18C35.9998 8.05959 27.9404 0 18 0ZM27.5051 26.264L26.0639 27.7055C25.8066 27.9624 25.0532 28.1228 25.029 28.1228C20.4696 28.1625 16.0796 26.3716 12.8541 23.1458C9.61973 19.9096 7.82675 15.504 7.8749 10.9292C7.8749 10.9271 8.03991 10.1953 8.29699 9.94064L9.73814 8.49926C10.2655 7.96944 11.2786 7.73001 11.9882 7.96744L12.2914 8.06856C12.999 8.30576 13.7419 9.08814 13.9374 9.80894L14.6623 12.4697C14.8578 13.1926 14.5941 14.221 14.0669 14.7484L13.1046 15.7108C14.0494 19.2085 16.7938 21.9534 20.292 22.9005L21.254 21.9378C21.7838 21.408 22.8118 21.1445 23.5331 21.3397L26.1935 22.0673C26.9145 22.2654 27.6967 23.0036 27.9338 23.711L28.035 24.0185C28.27 24.7262 28.0324 25.739 27.5051 26.264Z" fill="#2E363E"/>
</svg>
