<svg width="36" height="36" viewBox="0 0 36 36" fill="none" xmlns="http://www.w3.org/2000/svg">
<path d="M18.8297 20.6168C18.3904 21.0561 17.6788 21.0561 17.2389 20.6168L16.3502 19.728L12.9291 23.0625H23.1114L19.6914 19.7556L18.8297 20.6168ZM24.8659 12.9375H11.1887L18 19.6875L24.8659 12.9375ZM10.125 13.5034V23.0625H11.2843L15.5188 18.8972L10.125 13.5034ZM24.7843 23.0625H25.875V13.572L20.5493 18.8972L24.7843 23.0625ZM18 0C8.05894 0 0 8.05894 0 18C0 27.9411 8.05894 36 18 36C27.9411 36 36 27.9411 36 18C36 8.05894 27.9411 0 18 0ZM27 23.0625C27 23.6835 26.496 24.1875 25.875 24.1875H10.125C9.504 24.1875 9 23.6835 9 23.0625V12.9375C9 12.3165 9.504 11.8125 10.125 11.8125H25.875C26.496 11.8125 27 12.3165 27 12.9375V23.0625Z" fill="#F6F6F6"/>
</svg>
