<svg width="34" height="34" viewBox="0 0 34 34" fill="none" xmlns="http://www.w3.org/2000/svg">
<path d="M16.9999 0.439999C26.1461 0.439999 33.5599 7.85384 33.5599 17C33.5599 26.1462 26.1461 33.56 16.9999 33.56C7.85378 33.56 0.439941 26.1462 0.439941 17C0.439941 7.85384 7.85378 0.439999 16.9999 0.439999ZM22.7124 23.75C23.017 22.8154 24.444 13.5015 24.6204 11.6662C24.6737 11.1104 24.498 10.741 24.1539 10.5762C23.7377 10.376 23.1214 10.4761 22.4064 10.7338C21.4258 11.0874 8.88914 16.4103 8.16482 16.7185C7.47794 17.0101 6.8285 17.3283 6.8285 17.7891C6.8285 18.1131 7.02074 18.2953 7.55066 18.4846C8.10218 18.6812 9.49106 19.1024 10.3111 19.3285C11.101 19.5466 12.0003 19.3573 12.5043 19.0441C13.0385 18.7122 19.2039 14.5866 19.6467 14.2251C20.0887 13.8637 20.4415 14.3266 20.0801 14.6888C19.7187 15.0502 15.4865 19.1578 14.9285 19.7266C14.251 20.4171 14.7319 21.1328 15.1863 21.4194C15.7054 21.7462 19.4386 24.2504 20.0009 24.6522C20.5632 25.0539 21.1335 25.2361 21.6555 25.2361C22.1775 25.2361 22.4525 24.5485 22.7124 23.75Z" fill="#2E363E"/>
</svg>
