<svg xmlns="http://www.w3.org/2000/svg" xmlns:xlink="http://www.w3.org/1999/xlink" style="display: none;">
    <symbol id="telega" viewBox="0 0 36 36">
      <path xmlns="http://www.w3.org/2000/svg" d="M18.5 36c9.941 0 18-8.059 18-18s-8.059-18-18-18S.5 8.059.5 18s8.059 18 18 18Z"/><path xmlns="http://www.w3.org/2000/svg" fill-rule="evenodd" clip-rule="evenodd" d="M8.648 17.81c5.247-2.286 8.746-3.793 10.497-4.521 4.998-2.08 6.037-2.44 6.714-2.453.15-.002.482.035.698.21.182.147.232.347.256.487.024.14.054.46.03.709-.27 2.846-1.443 9.753-2.04 12.94-.252 1.35-.748 1.802-1.23 1.846-1.045.096-1.838-.69-2.85-1.354-1.585-1.039-2.48-1.685-4.018-2.699-1.777-1.17-.625-1.814.388-2.866.265-.276 4.87-4.465 4.96-4.845.01-.047.021-.224-.084-.318-.105-.094-.26-.062-.373-.036-.159.036-2.69 1.709-7.592 5.018-.719.494-1.37.734-1.952.721-.643-.014-1.88-.363-2.798-.662-1.128-.366-2.024-.56-1.946-1.182.041-.325.487-.656 1.34-.995Z"/> <!-- ваш путь из tg.svg -->
    </symbol>
    
</svg>