<svg display="none" xmlns="http://www.w3.org/2000/svg">
    <symbol id="telegram" viewBox="0 0 36 36">
        <path d="M18 0C27.9415 0 36 8.05852 36 18C36 27.9415 27.9415 36 18 36C8.05852 36 0 27.9415 0 18C0 8.05852 8.05852 0 18 0ZM24.2092 25.337C24.5403 24.3211 26.0914 14.1973 26.2831 12.2024C26.341 11.5983 26.1501 11.1968 25.776 11.0176C25.3237 10.8 24.6537 10.9088 23.8766 11.189C22.8107 11.5732 9.18391 17.359 8.39661 17.694C7.65 18.011 6.94409 18.3569 6.94409 18.8577C6.94409 19.2099 7.15304 19.4079 7.72904 19.6137C8.32852 19.8274 9.83817 20.2852 10.7296 20.531C11.5881 20.7681 12.5656 20.5623 13.1134 20.2218C13.6941 19.861 20.3956 15.3767 20.8769 14.9838C21.3574 14.591 21.7409 15.0942 21.348 15.4878C20.9551 15.8807 16.355 20.3455 15.7484 20.9637C15.012 21.7143 15.5348 22.4922 16.0286 22.8037C16.5929 23.159 20.6507 25.8809 21.2619 26.3176C21.8731 26.7543 22.493 26.9523 23.0603 26.9523C23.6277 26.9523 23.9267 26.2049 24.2092 25.337Z"/>
    </symbol>

    <symbol id="phone" viewBox="0 0 36 36">
        <path d="M18 0C8.05957 0 0 8.05959 0 18C0 27.9403 8.05957 36 18 36C27.9404 36 35.9998 27.9402 35.9998 18C35.9998 8.05959 27.9404 0 18 0ZM27.5051 26.264L26.0639 27.7055C25.8066 27.9624 25.0532 28.1228 25.029 28.1228C20.4696 28.1625 16.0796 26.3716 12.8541 23.1458C9.61973 19.9096 7.82675 15.504 7.8749 10.9292C7.8749 10.9271 8.03991 10.1953 8.29699 9.94064L9.73814 8.49926C10.2655 7.96944 11.2786 7.73001 11.9882 7.96744L12.2914 8.06856C12.999 8.30576 13.7419 9.08814 13.9374 9.80894L14.6623 12.4697C14.8578 13.1926 14.5941 14.221 14.0669 14.7484L13.1046 15.7108C14.0494 19.2085 16.7938 21.9534 20.292 22.9005L21.254 21.9378C21.7838 21.408 22.8118 21.1445 23.5331 21.3397L26.1935 22.0673C26.9145 22.2654 27.6967 23.0036 27.9338 23.711L28.035 24.0185C28.27 24.7262 28.0324 25.739 27.5051 26.264Z"/>
    </symbol>

    <symbol id="email" viewBox="0 0 36 36">
        <path d="M18.8297 20.6168C18.3904 21.0561 17.6788 21.0561 17.2389 20.6168L16.3502 19.728L12.9291 23.0625H23.1114L19.6914 19.7556L18.8297 20.6168ZM24.8659 12.9375H11.1887L18 19.6875L24.8659 12.9375ZM10.125 13.5034V23.0625H11.2843L15.5188 18.8972L10.125 13.5034ZM24.7843 23.0625H25.875V13.572L20.5493 18.8972L24.7843 23.0625ZM18 0C8.05894 0 0 8.05894 0 18C0 27.9411 8.05894 36 18 36C27.9411 36 36 27.9411 36 18C36 8.05894 27.9411 0 18 0ZM27 23.0625C27 23.6835 26.496 24.1875 25.875 24.1875H10.125C9.504 24.1875 9 23.6835 9 23.0625V12.9375C9 12.3165 9.504 11.8125 10.125 11.8125H25.875C26.496 11.8125 27 12.3165 27 12.9375V23.0625Z"/>
    </symbol>

    <symbol id="step-1" viewBox="0 0 100 100">
        <circle cx="50" cy="50" r="50" fill="#2E363E"/>
        <path d="M55.0157 31.8047V66H48.2657V39.5859L40.1563 42.1641V36.8438L54.2891 31.8047H55.0157Z" fill="#F6F6F6"/>
    </symbol>

    <symbol id="step-2" viewBox="0 0 100 100">
        <circle cx="50" cy="50" r="50" fill="#2E363E"/>
        <path d="M62.2396 60.7266V66H38.8959V61.5L49.9349 49.6641C51.0443 48.4297 51.9193 47.3438 52.5599 46.4062C53.2005 45.4531 53.6615 44.6016 53.9427 43.8516C54.2396 43.0859 54.388 42.3594 54.388 41.6719C54.388 40.6406 54.2162 39.7578 53.8724 39.0234C53.5287 38.2734 53.0209 37.6953 52.349 37.2891C51.6927 36.8828 50.8802 36.6797 49.9115 36.6797C48.8802 36.6797 47.9896 36.9297 47.2396 37.4297C46.5052 37.9297 45.9427 38.625 45.5521 39.5156C45.1771 40.4062 44.9896 41.4141 44.9896 42.5391H38.2162C38.2162 40.5078 38.7005 38.6484 39.6693 36.9609C40.638 35.2578 42.0052 33.9062 43.7709 32.9062C45.5365 31.8906 47.6302 31.3828 50.0521 31.3828C52.4427 31.3828 54.4584 31.7734 56.099 32.5547C57.7552 33.3203 59.0052 34.4297 59.849 35.8828C60.7084 37.3203 61.138 39.0391 61.138 41.0391C61.138 42.1641 60.9584 43.2656 60.599 44.3438C60.2396 45.4062 59.724 46.4688 59.0521 47.5312C58.3959 48.5781 57.599 49.6406 56.6615 50.7188C55.724 51.7969 54.6849 52.9141 53.5443 54.0703L47.6146 60.7266H62.2396Z" fill="#F6F6F6"/>
    </symbol>

    <symbol id="step-3" viewBox="0 0 100 100">
        <circle cx="50" cy="50" r="50" fill="#2E363E"/>
        <path d="M46.1432 46.0078H49.7526C50.9089 46.0078 51.862 45.8125 52.612 45.4219C53.362 45.0156 53.9167 44.4531 54.276 43.7344C54.651 43 54.8385 42.1484 54.8385 41.1797C54.8385 40.3047 54.6667 39.5312 54.3229 38.8594C53.9948 38.1719 53.487 37.6406 52.7995 37.2656C52.112 36.875 51.2448 36.6797 50.1979 36.6797C49.3698 36.6797 48.6042 36.8438 47.901 37.1719C47.1979 37.5 46.6354 37.9609 46.2135 38.5547C45.7917 39.1484 45.5807 39.8672 45.5807 40.7109H38.8073C38.8073 38.8359 39.3073 37.2031 40.3073 35.8125C41.3229 34.4219 42.6823 33.3359 44.3854 32.5547C46.0885 31.7734 47.9635 31.3828 50.0104 31.3828C52.3229 31.3828 54.3464 31.7578 56.0807 32.5078C57.8151 33.2422 59.1667 34.3281 60.1354 35.7656C61.1042 37.2031 61.5885 38.9844 61.5885 41.1094C61.5885 42.1875 61.3385 43.2344 60.8385 44.25C60.3385 45.25 59.6198 46.1562 58.6823 46.9688C57.7604 47.7656 56.6354 48.4062 55.3073 48.8906C53.9792 49.3594 52.487 49.5938 50.8307 49.5938H46.1432V46.0078ZM46.1432 51.1406V47.6484H50.8307C52.6901 47.6484 54.3229 47.8594 55.7292 48.2812C57.1354 48.7031 58.3151 49.3125 59.2682 50.1094C60.2214 50.8906 60.9401 51.8203 61.4245 52.8984C61.9089 53.9609 62.151 55.1406 62.151 56.4375C62.151 58.0312 61.8464 59.4531 61.237 60.7031C60.6276 61.9375 59.7682 62.9844 58.6589 63.8438C57.5651 64.7031 56.2839 65.3594 54.8151 65.8125C53.3464 66.25 51.7448 66.4688 50.0104 66.4688C48.5729 66.4688 47.1589 66.2734 45.7682 65.8828C44.3932 65.4766 43.1432 64.875 42.0182 64.0781C40.9089 63.2656 40.0182 62.25 39.3464 61.0312C38.6901 59.7969 38.362 58.3359 38.362 56.6484H45.1354C45.1354 57.5234 45.3542 58.3047 45.7917 58.9922C46.2292 59.6797 46.8307 60.2188 47.5964 60.6094C48.3776 61 49.2448 61.1953 50.1979 61.1953C51.276 61.1953 52.1979 61 52.9635 60.6094C53.7448 60.2031 54.3385 59.6406 54.7448 58.9219C55.1667 58.1875 55.3776 57.3359 55.3776 56.3672C55.3776 55.1172 55.151 54.1172 54.6979 53.3672C54.2448 52.6016 53.5964 52.0391 52.7526 51.6797C51.9089 51.3203 50.9089 51.1406 49.7526 51.1406H46.1432Z" fill="#F6F6F6"/>
    </symbol>

    <symbol id="step-4" viewBox="0 0 100 100">
        <circle cx="50" cy="50" r="50" fill="#2E363E"/>
        <path d="M60.4688 53.25V58.5469H35.8829L35.5547 54.4453L49.7813 31.875H55.1485L49.336 41.6016L42.2579 53.25H60.4688ZM56.6016 31.875V66H49.8516V31.875H56.6016Z" fill="#F6F6F6"/>
    </symbol>

    <symbol id="close-btn" viewBox="0 0 28 28">
        <path d="M2 26L26 2"/>
        <path d="M2 2L26 26"/>
    </symbol>
</svg>
